# Alias OBJ Model File
# Exported from SketchUp, (c) 2000-2012 Trimble Navigation Limited
# File units = meters

mtllib tree.mtl

g Mesh1 Group1 Model

usemtl m15
v 12.8793 11.0903 -33.263
vt 0.485339 0.747127
vn 0.0370814 0.204856 -0.97809
v 7.97203 7.07802 -34.2894
vt 1.02956 0.553073
v 7.79353 10.9011 -33.4955
vt 1.02956 0.747127
f 1/1/1 2/2/1 3/3/1

vn 0.037084 0.204852 -0.97809
v 13.0578 7.26721 -34.057
vt 0.485339 0.553073
f 2/2/2 1/1/2 4/4/2

g Mesh2 Group2 Model

usemtl Stupid_bark
v 11.5571 7.69915 -36.9553
vt 2.15859 0.33606
vn 0.872741 -0.487254 0.0301105
v 11.1422 7.18157 -33.3035
vt -0.251253 0.156137
v 10.5225 5.87241 -36.5268
vt 1.85349 -0.298954
f 5/5/3 6/6/3 7/7/3

vt -0.43727 0.531094
vn 0.661785 0.728157 0.178404
vt 1.95284 0.760328
v 10.3678 7.88335 -33.2951
vt -0.575193 0.841905
f 6/8/4 5/9/4 8/10/4

vt 1.35399 0.165056
vn 0.00236928 0.998772 -0.049491
vt 0.687714 -0.963431
v 9.53348 7.69915 -37.0522
vt 2.02025 -0.963431
f 8/11/5 5/12/5 9/13/5

vt 1.35398 0.214228
vn 0.0462641 -0.252868 -0.966394
vt 2.02025 0.787387
vt 0.687714 0.787387
f 7/14/6 9/15/6 5/16/6

v 9.59769 7.18157 -33.3774
vt 0.287402 0.765071
vn -0.871623 -0.487259 -0.0533996
vt -2.12244 0.944994
vt -1.81734 0.309978
f 10/17/7 9/18/7 7/19/7

vt -2.53186 -0.128692
vn -0.675807 0.728152 0.114369
vt -0.141746 -0.357925
vt -0.00382259 -0.0471159
f 9/20/8 10/21/8 8/22/8

vt -2.09436 0.311862
vn -0.653042 -0.747893 0.119127
v 10.3575 6.56525 -33.0814
vt 0.11554 0.628697
vt -0.165722 0.910538
f 7/23/9 11/24/9 10/25/9

vt -0.728341 -0.281793
vn 0.638676 -0.747893 0.180969
vt 1.48156 -0.598628
vt -0.447081 4.79084e-05
f 11/26/10 7/27/10 6/28/10

g Mesh3 polygon0 astleTreeEdit1 Model

usemtl mat1
v -11.2707 30.5625 -31.4127
vt 0.03894 0.29895
vn -0.944916 0.094473 0.313384
v -6.52903 21.9817 -14.529
vt 0.990845 0.11731
v -5.8473 30.4184 -15.0167
vt 0.96106 0.29895
f 12/29/11 13/30/11 14/31/11

v -12.153 22.1312 -31.5316
vt 0.009155 0.11731
vn -0.944916 0.0944727 0.313383
f 15/32/12 13/30/12 12/29/12

vn -0.842996 -0.462447 0.274775
v -3.19186 14.1758 -17.428
vt 0.898193 0.007202
f 15/32/13 16/33/13 13/30/13

vn -0.842996 -0.462445 0.274777
v -7.64391 14.102 -31.2108
vt 0.104157 0.00442583
v -7.06589 14.0867 -29.4633
vt 0.205066 0.00443019
f 15/32/14 17/34/14 18/35/14 16/33/14 

v -4.10691 22.1931 -47.5314
vn -0.792148 -0.460853 -0.400145
v -7.61565 14.1022 -31.267
vt 0.892395 0.00442583
vt 0.895843 0.00442583
f 19/32/15 20/36/15 17/37/15 15/30/15 

v -1.24864 14.4053 -44.2205
vt 0.101196 0.008057
vn -0.792151 -0.46085 -0.400144
v -6.98618 14.1071 -32.5187
vt 0.815592 0.00443336
f 21/38/16 22/39/16 20/36/16 19/32/16 

vn -0.280241 -0.460847 -0.842072
v 12.896 22.1312 -53.1561
f 21/38/17 19/32/17 23/30/17

usemtl BlackMatte
v 26.4736 21.7703 -12.1081
vt -1.15817 -0.39645
vn -0.005903 -0.999959 -0.00683783
v 9.47066 21.8322 -6.48354
vt -0.986828 -0.810097
vt -0.573179 -0.981438
vt -0.15953 -0.8101
vt 0.011809 -0.396452
vt -0.159529 0.0171973
v 28.8957 21.9817 -45.1106
vt -0.573178 0.188538
v 34.5197 21.8322 -28.108
vt -0.986827 0.0171994
f 24/40/18 25/41/18 13/42/18 15/43/18 19/44/18 23/45/18 26/46/18 27/47/18 

usemtl mat1
vn 0.313258 0.0827193 0.946059
v 9.58154 30.2742 -7.25839
f 24/30/19 28/29/19 25/32/19

vn 0.313261 0.0827266 0.946057
v 25.9779 30.2145 -12.6824
f 24/30/20 29/31/20 28/29/20

vn 0.890204 0.0827231 0.447989
f 27/32/21 29/31/21 24/30/21

vn 0.890204 0.082723 0.447989
v 33.7369 30.2742 -28.1114
f 27/32/22 30/29/22 29/31/22

vn 0.94599 0.0875944 -0.312138
f 27/30/23 26/32/23 30/31/23

vn 0.839447 -0.464698 -0.281751
v 25.5745 14.2548 -42.2615
vt 0.100952 0.008301
f 27/30/24 31/48/24 26/32/24

v 30.2039 14.2338 -28.4341
vt 0.900269 0.009766
vn 0.839448 -0.464697 -0.281752
f 32/49/25 31/48/25 27/30/25

vt 0.099731 0.009766
vn 0.791048 -0.46629 0.396001
f 32/50/26 27/32/26 24/30/26

v 23.6459 14.1916 -15.3836
vt 0.900391 0.009888
f 32/50/26 24/30/26 33/51/26

vn 0.276299 -0.466291 0.840376
f 33/51/27 24/30/27 25/32/27

vn 0.2763 -0.46629 0.840376
v 9.78103 14.1584 -10.8435
vt 0.100586 0.008667
f 33/51/28 25/32/28 34/52/28

vn -0.401257 -0.464694 0.789336
vt 0.899414 0.008667
f 13/32/29 34/53/29 25/30/29

vt 0.101807 0.007202
vn -0.401259 -0.464699 0.789333
f 16/54/30 34/53/30 13/32/30

vn -0.446869 0.0875833 0.890302
f 13/32/31 25/30/31 14/29/31

vn -0.446868 0.0875855 0.890302
f 14/29/32 25/30/32 28/31/32

vn -0.362789 0.576453 0.732179
v -0.710368 39.1516 -19.3472
vt 0.124023 0.395386
f 14/29/33 28/31/33 35/55/33

vn -0.362793 0.57645 0.73218
v 10.1248 39.0504 -13.8987
vt 0.875977 0.395386
f 35/55/34 28/31/34 36/56/34

vn 0.25939 0.572464 0.777819
f 29/31/35 36/55/35 28/29/35

vn 0.259391 0.572466 0.777817
v 21.6395 39.0084 -17.7078
f 29/31/36 37/56/36 36/55/36

vn 0.731628 0.572466 0.370139
f 30/29/37 37/56/37 29/31/37

v 27.0884 39.0504 -28.5432
f 30/29/37 38/55/37 37/56/37

vn 0.777293 0.576447 -0.252039
v 28.3135 30.4184 -44.5074
f 30/31/38 39/29/38 38/56/38

vn 0.945991 0.0875914 -0.312137
f 30/31/39 26/32/39 39/29/39

vn 0.447943 0.0944769 -0.889056
f 26/30/40 23/32/40 39/31/40

vn 0.394874 -0.462441 -0.793866
v 12.5554 14.1059 -48.6507
vt 0.104126 0.004517
f 26/30/41 40/57/41 23/32/41

vt 0.899048 0.008301
vn 0.394876 -0.462446 -0.793862
f 31/58/42 40/57/42 26/30/42

vn -0.280239 -0.460849 -0.842071
vt 0.895874 0.004517
f 21/38/43 23/30/43 40/59/43

vn 0.447942 0.0944792 -0.889057
v 12.8847 30.5625 -52.2658
f 39/31/44 23/32/44 41/29/44

vn -0.312188 0.0993466 -0.944812
f 19/32/45 41/31/45 23/30/45

vn -0.312183 0.0993363 -0.944814
v -3.5116 30.6222 -46.8419
f 19/32/46 42/29/46 41/31/46

vn -0.889128 0.0993402 -0.446747
f 15/30/47 42/29/47 19/32/47

vn -0.889129 0.0993455 -0.446745
f 15/30/48 12/31/48 42/29/48

vn -0.724787 0.586074 -0.362217
v 0.929927 39.2947 -41.6969
f 12/31/49 43/55/49 42/29/49

vn -0.724788 0.586071 -0.36222
v -4.51903 39.2528 -30.8616
f 12/31/50 44/56/50 43/55/50

vn -0.77045 0.582088 0.259961
f 12/29/51 14/31/51 44/55/51

vn -0.770451 0.582088 0.259961
f 44/55/52 14/31/52 35/56/52

vn -0.22114 0.971815 0.0816896
v 11.3059 42.7543 -29.6777
vt 0.5 0.470947
f 44/55/53 35/56/53 45/60/53

vn -0.101628 0.970163 0.220128
f 35/55/54 36/56/54 45/60/54

vn 0.0807744 0.968994 0.233507
f 37/56/55 45/60/55 36/55/55

vn 0.219217 0.968994 0.113991
f 37/56/56 38/55/56 45/60/56

vn 0.232603 0.970163 -0.0684097
v 23.2798 39.1516 -40.0576
f 38/56/57 46/55/57 45/60/57

f 38/56/38 39/29/38 46/55/38

vn 0.36963 0.582081 -0.724261
f 39/31/58 41/29/58 46/56/58

vn 0.369626 0.582085 -0.724261
v 12.4445 39.2528 -45.506
f 46/56/59 41/29/59 47/55/59

vn -0.252548 0.58607 -0.769897
f 42/29/60 47/56/60 41/31/60

vn -0.252551 0.586075 -0.769892
f 42/29/61 43/55/61 47/56/61

vn -0.0693098 0.972983 -0.220228
f 43/55/62 45/60/62 47/56/62

vn -0.207753 0.972983 -0.100712
f 43/55/63 44/56/63 45/60/63

vn 0.11309 0.971815 -0.206849
f 46/56/64 47/55/64 45/60/64

g Mesh4 polygon0 astleTreeEdit1 Model

usemtl _27
v 6.83559 -3.857 -32.9716
vt 67.4568 -6.87823
vn -0.962615 -0.119421 -0.243127
v 5.63501 -3.857 -28.2182
vt 68.7865 -6.93548
v 6.78231 -0.100545 -34.6058
vt 67.1263 -6.38624
f 48/61/65 49/62/65 50/63/65

vn -0.921118 -0.239938 -0.306547
v 4.53078 -0.100545 -27.8404
vt 69.0625 -6.45759
f 49/62/66 51/64/66 50/63/66

vt 68.7078 -6.24895
vn -0.552609 -0.242631 0.797342
vt 69.0425 -6.97056
v 10.3556 -0.100545 -23.8034
vt 71.5868 -6.20384
f 51/65/67 49/66/67 52/67/67

vt 69 -6.98025
vn -0.660295 -0.0508261 0.749284
v 9.424 -3.857 -24.8792
vt 71.0501 -6.93178
vt 71.5444 -6.21354
f 49/68/68 53/69/68 52/70/68

vt 71.1248 -6.17897
vn 0.552484 -0.353225 0.754979
v 14.0979 -3.857 -28.2994
vt 73.404 -6.94994
f 52/71/69 53/69/69 54/72/69

vn 0.583155 -0.315184 0.748725
v 15.7662 -0.100545 -28.0176
vt 73.9114 -6.21337
f 52/71/70 54/72/70 55/73/70

vt 73.1582 -6.34354
vn 0.882076 -0.369872 -0.291783
vt 73.448 -6.95381
v 12.474 -3.857 -33.2084
vt 75.1464 -6.93625
f 55/74/71 54/75/71 56/76/71

vt 75.1463 -6.93626
v 13.6518 -0.100545 -34.4097
vt 75.3697 -6.32068
f 56/77/71 57/78/71 55/74/71

vt 73.9736 -6.93904
vn 0.0271106 -0.312188 -0.949633
vt 75.4783 -6.37709
vt 73.573 -6.44427
f 56/79/72 50/80/72 57/81/72

vt 75.5407 -6.90204
vn -0.0384639 -0.399075 -0.916111
f 48/82/73 50/80/73 56/79/73

usemtl Stupid_bark
vt 0.791694 0.161828
vn 0.0283387 0.117657 -0.99265
v 8.29322 14.0194 -32.889
vt 1.13009 1.36756
v 12.7909 13.992 -32.7639
vt 0.323621 1.45546
vt -0.438233 0.299566
f 50/83/74 58/84/74 59/85/74 57/86/74 

v 7.19749 9.69008 -31.6333
vt -2.32004 0.00679912
vn -0.933114 0.140111 -0.331159
v 7.74793 14.0121 -31.3556
vt -3.12223 0.0318091
vt -3.13846 -0.106319
vt -0.52561 -0.260965
f 60/87/75 61/88/75 58/89/75 50/90/75 

v 6.42033 11.6568 -28.4054
vt -2.65865 0.285491
vn -0.939942 0.139714 -0.31143
v 6.80117 13.9982 -28.5044
vt -3.09547 0.27663
vt -3.12364 0.0215999
vt -2.32143 -0.00323388
f 62/91/76 63/92/76 61/93/76 60/94/76 

v 8.16509 9.69008 -26.8747
vt -2.28692 -0.196513
vn -0.569391 0.126979 0.812201
v 8.57779 13.9792 -27.256
vt -3.07442 -0.252058
vt -3.00663 -0.433959
vt -2.5705 -0.419526
f 64/95/77 65/96/77 63/97/77 62/98/77 

vt -0.614935 0.251044
vn -0.57026 0.127008 0.811586
v 10.6307 13.9572 -25.81
vt -3.15294 -0.0408946
vt -3.07471 -0.251256
vt -2.28718 -0.195792
f 52/99/78 66/100/78 65/101/78 64/102/78 

v 12.7338 11.0427 -26.9757
vt 2.56788 -0.180316
vn 0.587647 0.103054 0.802528
v 12.5791 13.9555 -27.2365
vt 3.10116 -0.217468
vt 3.16346 -0.014243
vt 0.622218 0.271636
f 67/103/79 68/104/79 66/105/79 52/106/79 

v 14.3277 12.5894 -28.4149
vt 2.80592 -0.359534
vn 0.609845 0.102739 0.785833
v 14.174 13.9545 -28.4741
vt 3.05853 -0.367671
vt 3.10749 -0.197574
vt 2.57379 -0.161732
f 69/107/80 70/108/80 68/109/80 67/110/80 

v 13.7609 11.0427 -30.568
vt 2.60949 0.076426
vn 0.94449 0.0926631 -0.315201
v 13.5041 13.9722 -30.4763
vt 3.15102 0.0846441
vt 3.13574 0.263961
vt 2.88279 0.269264
f 71/111/81 72/112/81 70/113/81 69/114/81 

vt 0.569561 -0.273949
vn 0.950808 0.0926034 -0.295615
vt 3.16802 -0.127517
vt 3.15165 0.0760233
vt 2.61011 0.0678592
f 57/115/82 59/116/82 72/117/82 71/118/82 

vt 0.524687 0.305789
vn 0.944789 0.0984932 -0.312528
vt 0.565062 -0.266176
vt 2.60408 0.0775752
f 55/119/83 57/120/83 71/121/83

vt 0.522589 0.302649
vn 0.947041 0.100636 -0.304936
vt 2.60228 0.0750251
v 14.6744 9.39092 -28.2761
vt 2.28202 0.279578
f 55/122/84 71/123/84 73/124/84

vt 2.88685 0.26657
vn 0.945641 0.088925 -0.312818
vt 2.29442 0.278996
vt 2.61302 0.0738919
f 69/125/85 73/126/85 71/127/85

vt 2.21939 -0.335565
vn 0.611371 0.100349 0.784956
vt 2.81099 -0.354615
vt 2.57745 -0.157169
f 73/128/86 69/129/86 67/130/86

vt 2.58872 -0.147954
vn 0.606787 0.0913056 0.789603
vt 0.476306 -0.292268
vt 2.23473 -0.328075
f 67/131/87 55/132/87 73/133/87

vt 2.5874 -0.14657
vn 0.611808 0.0930543 0.785513
vt 0.624432 0.289147
vt 0.4746 -0.289665
f 67/134/88 52/135/88 55/136/88

vt -0.374748 -0.345186
vn -0.564849 0.12929 0.815003
vt -0.614094 0.246978
vt -2.28169 -0.20354
f 51/137/89 52/138/89 64/139/89

vt -0.376155 -0.346974
vn -0.561635 0.127856 0.817446
vt -2.2828 -0.204479
v 5.74876 7.63392 -28.2133
vt -1.81481 -0.402003
f 51/140/90 64/141/90 74/142/90

vt -2.55423 -0.43315
vn -0.564548 0.133137 0.814592
vt -1.80476 -0.405003
vt -2.27545 -0.20885
f 62/143/91 74/144/91 64/145/91

vt -1.90495 0.304129
vn -0.93924 0.141868 -0.312574
vt -2.65598 0.286942
vt -2.31922 -0.00189699
f 74/146/92 62/147/92 60/148/92

vt -2.32825 -0.00257582
vn -0.938782 0.1325 -0.318012
vt -0.47425 0.337467
vt -1.91601 0.304034
f 60/149/93 51/150/93 74/151/93

vt -2.32616 -0.00424094
vn -0.940167 0.134863 -0.312887
vt -0.530516 -0.270252
vt -0.47164 0.335191
f 60/152/94 50/153/94 51/154/94

g Mesh5 polygon0 astleTreeEdit1 Model

usemtl mat1
v 24.4276 12.5293 -34.231
vt 0.185425 0.014038
vn 0.907122 -0.416272 0.0620238
v 24.9747 13.921 -32.8918
vt 0.261617 0.0367769
v 24.2879 13.8592 -23.2619
vt 0.830113 0.036765
v 23.6979 12.5293 -23.5588
vt 0.815308 0.015137
f 75/155/95 76/156/95 77/157/95 78/158/95 

vn 0.907123 -0.416271 0.0620227
v 25.0855 13.9309 -34.4458
vt 0.169862 0.0367769
f 75/155/96 79/159/96 76/156/96

v 17.4081 12.5293 -42.2615
vt 0.186523 0.012451
vn 0.6855 -0.413579 -0.599201
v 18.8246 14.0173 -41.668
vt 0.267297 0.0367531
vt 0.830138 0.0367769
vt 0.814575 0.014038
f 80/160/97 81/161/97 79/162/97 75/163/97 

vn 0.685501 -0.413581 -0.599199
v 17.7413 14.0322 -42.9177
vt 0.169889 0.0367531
f 80/160/98 82/164/98 81/161/98

v 6.79772 12.5293 -42.9872
vt 0.187256 0.011353
vn 0.0622067 -0.410897 -0.909557
v 8.27351 14.0927 -43.5925
vt 0.271204 0.0367503
vt 0.830111 0.0367531
vt 0.813477 0.012451
f 83/165/99 84/166/99 82/167/99 80/168/99 

vn 0.0622033 -0.410894 -0.909559
v 6.55735 14.1037 -43.7148
vt 0.169874 0.0367503
f 83/165/100 85/169/100 84/166/100

v -1.22869 12.5293 -36.0292
vn -0.5975 -0.409788 -0.689251
v -0.614943 14.1035 -37.4972
vt 0.271194 0.0367474
vt 0.830126 0.0367503
vt 0.812744 0.011353
f 86/165/101 87/170/101 85/171/101 83/172/101 

vn -0.597498 -0.409789 -0.689252
v -1.91485 14.1035 -36.3703
vt 0.169876 0.0367474
f 86/165/102 88/173/102 87/170/102

v -2.01587 12.5293 -25.4231
vn -0.909176 -0.410908 -0.0674784
v -2.59485 14.0423 -26.8357
vt 0.732726 0.0367461
f 89/168/103 90/174/103 88/173/103 86/165/103 

vn -0.909176 -0.410908 -0.0674787
v -2.71247 14.0317 -25.1864
vt 0.830106 0.0367461
f 89/168/104 91/175/104 90/174/104

v 4.93761 12.5293 -17.3351
vn -0.69039 -0.413595 0.593549
v 3.61157 13.9445 -17.8913
vt 0.738406 0.0367699
vt 0.169894 0.0367461
f 92/163/105 93/176/105 91/177/105 89/160/105 

vn -0.690389 -0.413594 0.593551
v 4.63173 13.9304 -16.7145
vt 0.830133 0.0367699
f 92/163/106 94/178/106 93/176/106

v 15.6055 12.5293 -16.5434
vn -0.0672894 -0.416281 0.906743
v 14.3309 13.8684 -16.0232
vt 0.742441 0.0367621
vt 0.169867 0.0367699
f 95/158/107 96/179/107 94/180/107 92/155/107 

vn -0.0672948 -0.416285 0.90674
v 15.8157 13.859 -15.9174
vt 0.830111 0.0367621
f 95/158/108 97/181/108 96/179/108

vn 0.595245 -0.417396 0.686633
v 23.163 13.8591 -22.2867
vt 0.742431 0.036765
vt 0.169889 0.0367621
vt 0.184692 0.015137
f 78/158/109 98/182/109 97/183/109 95/184/109 

vn 0.595247 -0.417394 0.686632
f 78/158/110 77/157/110 98/182/110

v 17.8885 26.9704 -9.74404
vt 0.023926 0.25
v 30.1045 26.9707 -20.334
vt 0.976074 0.25
f 99/185/110 98/182/110 77/157/110 100/186/110 

f 99/185/109 97/183/109 98/182/109

v 1.76258 27.0735 -10.8935
f 101/185/108 96/179/108 97/181/108 99/186/108 

f 101/185/107 94/180/107 96/179/107

v -8.82698 27.2195 -23.109
f 102/185/106 93/176/106 94/178/106 101/186/106 

f 102/185/105 91/177/105 93/176/105

v -7.6769 27.323 -39.2349
f 103/185/104 90/174/104 91/175/104 102/186/104 

f 103/185/103 88/173/103 90/174/103

v 4.53909 27.3233 -49.8248
f 104/186/102 87/170/102 88/173/102 103/185/102 

f 104/186/101 85/171/101 87/170/101

v 20.6651 27.2203 -48.6755
f 105/186/100 84/166/100 85/169/100 104/185/100 

f 105/186/99 82/167/99 84/166/99

v 31.2546 27.0742 -36.46
f 106/186/98 81/161/98 82/164/98 105/185/98 

f 106/186/97 79/162/97 81/161/97

f 100/186/96 76/156/96 79/159/96 106/185/96 

f 100/186/95 77/157/95 76/156/95

usemtl BlackMatte
vt -1.4728 -0.965778
vt -1.31433 -1.15011
vt -1.27722 -1.15291
vt -1.03481 -1.1712
vt -1.00528 -1.14581
vt -0.82225 -0.988455
vt -0.819141 -0.947235
vt -0.801167 -0.708935
vt -0.829205 -0.676322
vt -0.983907 -0.496377
vt -1.0268 -0.493142
vt -1.26343 -0.475294
vt -1.29478 -0.50225
vt -1.47599 -0.658035
vt -1.47891 -0.696875
vt -1.49707 -0.937554
f 98/187/18 97/188/18 96/189/18 94/190/18 93/191/18 91/192/18 90/193/18 88/194/18 87/195/18 85/196/18 84/197/18 82/198/18 81/199/18 79/200/18 76/201/18 77/202/18 

